<mxfile host="Drawpyo" modified="2024-11-06T13:33:19" agent="Python 3.12, Drawpyo 0.01" version="21.6.5" type="device">
  <diagram name="Page-1" id="1370769020000">
    <mxGraphModel dx="2037" dy="830" grid="1" gridSize="10" guides="1" toolTips="1" connect="1" arrows="1" fold="1" page="1" pageScale="1" pageWidth="1100" pageHeight="850" math="0" shadow="0">
      <root>
        <mxCell id="0" />
        <mxCell id="1" parent="0" />
        <mxCell id="1370765303952" value="ball up top
192.168.254.251" style="whiteSpace=wrap;rounded=0;dashed=0;shape=image;image=data:image/svg+xml,PD94bWwgdmVyc2lvbj0iMS4wIiBlbmNvZGluZz0idXRmLTgiPz48IS0tIFVwbG9hZGVkIHRvOiBTVkcgUmVwbywgd3d3LnN2Z3JlcG8uY29tLCBHZW5lcmF0b3I6IFNWRyBSZXBvIE1peGVyIFRvb2xzIC0tPgo8c3ZnIHdpZHRoPSI4MDBweCIgaGVpZ2h0PSI4MDBweCIgdmlld0JveD0iLTAuNSAwIDI1NyAyNTciIHhtbG5zPSJodHRwOi8vd3d3LnczLm9yZy8yMDAwL3N2ZyIgcHJlc2VydmVBc3BlY3RSYXRpbz0ieE1pZFlNaWQiPjxwYXRoIGQ9Ik0wIDM2LjM1N0wxMDQuNjIgMjIuMTFsLjA0NSAxMDAuOTE0LTEwNC41Ny41OTVMMCAzNi4zNTh6bTEwNC41NyA5OC4yOTNsLjA4IDEwMS4wMDJMLjA4MSAyMjEuMjc1bC0uMDA2LTg3LjMwMiAxMDQuNDk0LjY3N3ptMTIuNjgyLTExNC40MDVMMjU1Ljk2OCAwdjEyMS43NGwtMTM4LjcxNiAxLjFWMjAuMjQ2ek0yNTYgMTM1LjZsLS4wMzMgMTIxLjE5MS0xMzguNzE2LTE5LjU3OC0uMTk0LTEwMS44NEwyNTYgMTM1LjZ6IiBmaWxsPSIjMDBBREVGIi8+PC9zdmc+;fontFamily=Helvetica;fontSize=12;fontColor=#000000;labelPosition=center;spacingBottom=-35;align=center;verticalAlign=bottom;horizontal=1;" vertex="1" parent="1370765084000">
  <mxGeometry x="50" y="50" width="100" height="50" as="geometry" />
</mxCell>
        <mxCell id="1370769027488" value="chat is this real
192.168.254.252" style="whiteSpace=wrap;rounded=0;dashed=0;shape=image;image=data:image/svg+xml,PD94bWwgdmVyc2lvbj0iMS4wIiBlbmNvZGluZz0idXRmLTgiPz48IS0tIFVwbG9hZGVkIHRvOiBTVkcgUmVwbywgd3d3LnN2Z3JlcG8uY29tLCBHZW5lcmF0b3I6IFNWRyBSZXBvIE1peGVyIFRvb2xzIC0tPgo8c3ZnIHdpZHRoPSI4MDBweCIgaGVpZ2h0PSI4MDBweCIgdmlld0JveD0iLTAuNSAwIDI1NyAyNTciIHhtbG5zPSJodHRwOi8vd3d3LnczLm9yZy8yMDAwL3N2ZyIgcHJlc2VydmVBc3BlY3RSYXRpbz0ieE1pZFlNaWQiPjxwYXRoIGQ9Ik0wIDM2LjM1N0wxMDQuNjIgMjIuMTFsLjA0NSAxMDAuOTE0LTEwNC41Ny41OTVMMCAzNi4zNTh6bTEwNC41NyA5OC4yOTNsLjA4IDEwMS4wMDJMLjA4MSAyMjEuMjc1bC0uMDA2LTg3LjMwMiAxMDQuNDk0LjY3N3ptMTIuNjgyLTExNC40MDVMMjU1Ljk2OCAwdjEyMS43NGwtMTM4LjcxNiAxLjFWMjAuMjQ2ek0yNTYgMTM1LjZsLS4wMzMgMTIxLjE5MS0xMzguNzE2LTE5LjU3OC0uMTk0LTEwMS44NEwyNTYgMTM1LjZ6IiBmaWxsPSIjMDBBREVGIi8+PC9zdmc+;fontFamily=Helvetica;fontSize=12;fontColor=#000000;labelPosition=center;spacingBottom=-35;align=center;verticalAlign=bottom;horizontal=1;" vertex="1" parent="1370765084000">
  <mxGeometry x="170" y="50" width="100" height="50" as="geometry" />
</mxCell>
        <mxCell id="1370762340464" value="jiving media
192.168.254.253" style="whiteSpace=wrap;rounded=0;dashed=0;shape=image;image=data:image/svg+xml,PD94bWwgdmVyc2lvbj0iMS4wIiBlbmNvZGluZz0idXRmLTgiPz48IS0tIFVwbG9hZGVkIHRvOiBTVkcgUmVwbywgd3d3LnN2Z3JlcG8uY29tLCBHZW5lcmF0b3I6IFNWRyBSZXBvIE1peGVyIFRvb2xzIC0tPgo8c3ZnIHdpZHRoPSI4MDBweCIgaGVpZ2h0PSI4MDBweCIgdmlld0JveD0iLTAuNSAwIDI1NyAyNTciIHhtbG5zPSJodHRwOi8vd3d3LnczLm9yZy8yMDAwL3N2ZyIgcHJlc2VydmVBc3BlY3RSYXRpbz0ieE1pZFlNaWQiPjxwYXRoIGQ9Ik0wIDM2LjM1N0wxMDQuNjIgMjIuMTFsLjA0NSAxMDAuOTE0LTEwNC41Ny41OTVMMCAzNi4zNTh6bTEwNC41NyA5OC4yOTNsLjA4IDEwMS4wMDJMLjA4MSAyMjEuMjc1bC0uMDA2LTg3LjMwMiAxMDQuNDk0LjY3N3ptMTIuNjgyLTExNC40MDVMMjU1Ljk2OCAwdjEyMS43NGwtMTM4LjcxNiAxLjFWMjAuMjQ2ek0yNTYgMTM1LjZsLS4wMzMgMTIxLjE5MS0xMzguNzE2LTE5LjU3OC0uMTk0LTEwMS44NEwyNTYgMTM1LjZ6IiBmaWxsPSIjMDBBREVGIi8+PC9zdmc+;fontFamily=Helvetica;fontSize=12;fontColor=#000000;labelPosition=center;spacingBottom=-35;align=center;verticalAlign=bottom;horizontal=1;" vertex="1" parent="1370765084000">
  <mxGeometry x="50" y="150" width="100" height="50" as="geometry" />
</mxCell>
        <mxCell id="1370765565856" value="roboto mono
192.168.254.100" style="whiteSpace=wrap;rounded=0;dashed=0;shape=image;image=data:image/svg+xml,PD94bWwgdmVyc2lvbj0iMS4wIiBlbmNvZGluZz0iVVRGLTgiIHN0YW5kYWxvbmU9Im5vIj8+CjxzdmcKICAgeG1sbnM9Imh0dHA6Ly93d3cudzMub3JnLzIwMDAvc3ZnIgogICB3aWR0aD0iNTEyLjA0MSIKICAgaGVpZ2h0PSI1MDIuNDM5IgogICB2aWV3Qm94PSIwIDAgMTM1LjQ3NzUyIDEzMi45MzY5OSIKICAgdmVyc2lvbj0iMS4xIj4KICA8Zz4KICAgIDxwYXRoCiAgICAgICBmaWxsPSIjNTFBMkRBIgogICAgICAgZD0iTSA2Ny43NzQ4MywwIEMgMzAuMzY2NjUsMCAwLjA3ODc4LDI5LjczMjAwMiAwLjAxMjYsNjYuNDM4NzUyIEggMCB2IDUxLjQzMDQ3OCBoIDAuMDEyNiBjIDAuMDE3NCw4LjMyNDcgNi45MDE5NCwxNS4wNjc4MiAxNS4zOTIwOSwxNS4wNjc4MiBoIDUyLjM3Njc2IGMgMzcuNDE0ODEsLTAuMDIzOCA2Ny42OTYwNiwtMjkuNzUxODcgNjcuNjk2MDYsLTY2LjQzODczOSA1ZS01LC0zNi43MDY3NSAtMzAuMzIwOTUsLTY2LjQzODc1NSAtNjcuNzYyMjQsLTY2LjQzODc1NSB6IiAvPgogICAgPHBhdGgKICAgICAgIGZpbGw9IiNGRkZGRkYiCiAgICAgICBkPSJtIDgxLjU0NjI5LDI3LjMzNzg3NyBjIC0xMC41Njc5OSwwIC0xOS45MDMyNCw3LjgwMTU2MiAtMjEuMTk1NjEsMTguMDM4Njk0IC0wLjA4NjgsMC44NTY5NDggLTAuMTExNzksMS40NzQ2NTIgLTAuMTE2NzksMi4yNTE1NCBsIDAuMDEyNCw0MS44NTQ4MTIgYyAwLDguMDI4OSAtNi4xMjc4MiwxMy40OTMyMjcgLTEzLjc4NDE4LDEzLjQ5MzIyNyAtNy42NjY5MSwwIC0xMy44NDM2LC02LjAwODYzNyAtMTMuODQzNiwtMTMuNTA2MTQ3IDAuMTI1NzQsLTguMjMwNzI4IDYuODQyNjcsLTEzLjQ1MDg2NyAxNC42Nzc2NiwtMTMuNjc4MjM3IGggMC4wNDE5IGwgNy45NTQwNCwtMC4wNzE4MyBWIDY0LjY2ODkzMSBsIC03Ljk1NDA0LDAuMDU4OTEgYyAtMTQuMjYwNSwtMC4xMjU3NCAtMjUuNTc5NzgsMTAuODI1ODggLTI1Ljk5MzI0LDI0Ljc0ODg3MiAwLDEzLjUzOTIwNyAxMS4zNDIzNiwyNC41NzY3OTcgMjUuMTEzMTksMjQuNTc2Nzk3IDEyLjk4OTk2LDAgMjMuODAwMzUsLTkuOTUyNDMgMjQuOTgwOSwtMjIuNDA2Mzg3IDAuMTcwMiwtNC4yMzkxMDcgMC4wODczLC05LjgzMzUwMyAwLjA4NzMsLTkuODMzNTAzIDAuMDIzOCwtMi4zMDM1MTEgLTAuMDM2NSwtMS40NzYzMjggLTAuMDEyNCwtNi4wNTAyNzggbCA5Ljg2NjU5LC0wLjA3MTgzIGMgNy42MzQ0LDAuMDUyOTUgNy41NDg2MywtMTEuMjI1ODAyIC0wLjA4NzksLTExLjA3MDY0MyBsIC05Ljc4MDgsMC4wNzEzMSBjIDAsLTUuNjc3NzM5IDAuMDkxMSwtMTEuMzIwMzc1IDAsLTE3LjAwNjcxMyAwLjAwNywtNC45MTgwNTYgNC43NTYzLC05LjI2NDAzMyAxMC4wMjU3NCwtOS4yNjQwMzMgNS4yNzA3NywwIDEwLjg0NTg1LDIuNTgwNDU3IDEwLjg0NTg1LDkuMjY0MDMzIDAsMC45NTQ4ODkgLTAuMDE5NSwxLjUxMDcyMyAtMC4wNzM0LDEuODY0NDg0IC0wLjU4ODI5LDMuMDk5NTk0IDEuNTcwNjYsNi4wNjE5NjIgNC43NTE2NSw2LjUwOTE2NiAzLjE4MDk4LDAuNDQyMDM5IDYuMTAyMDEsLTEuODExMTQyIDYuNDE3MTgsLTQuOTQ2NDcgMC4xODI2MSwtMS4yMzk0NDEgMC4xNzU3LC0yLjMzMjk0NSAwLjE3NTcsLTMuNDI2MTQ4IDAsLTExLjc4NTU5MiAtMTAuNzQwMTMsLTIwLjMyODk5IC0yMi4xMTU0NSwtMjAuMzI4OTkgeiIgLz4KICA8L2c+Cjwvc3ZnPg;fontFamily=Helvetica;fontSize=12;fontColor=#000000;labelPosition=center;spacingBottom=-35;align=center;verticalAlign=bottom;horizontal=1;" vertex="1" parent="1370765084000">
  <mxGeometry x="170" y="150" width="100" height="50" as="geometry" />
</mxCell>
        <mxCell id="1370765084000" value="bunger subnet" style="whiteSpace=wrap;rounded=0;fillColor=#E6F6F7;strokeColor=#00A4A6;dashed=0;fontSize=12;fontStyle=0;shape=mxgraph.aws4.group;grIcon=mxgraph.aws4.group_security_group;grStroke=0;verticalAlign=top;align=left;spacingLeft=30;fontColor=#147EBA;" vertex="1" parent="1">
  <mxGeometry x="50" y="65" width="320" height="250" as="geometry" />
</mxCell>
        <mxCell id="1370769554128" value="192.168.254.128/25" style="whiteSpace=wrap;rounded=0;opacity=0;dashed=0;fontFamily=Helvetica;fontSize=12;fontColor=#000000;labelPosition=center;spacing=0;align=left;verticalAlign=bottom;horizontal=1;" vertex="1" parent="1">
  <mxGeometry x="50" y="50" width="110" height="15" as="geometry" />
</mxCell>
      </root>
    </mxGraphModel>
  </diagram>
</mxfile>